REM DIRINDEX 1\2,1\3,1\4,1\5
REM DIRNAME cjc005,folder01,folder02,folder03,folder04
TITLE ""
FILE "P1Q_t_0262-0271.mp3" MP3
  TRACK 01 AUDIO
    TITLE "3:cjc005_1687"
    INDEX 01 00:00:00
  TRACK 02 AUDIO
    TITLE "0:"
    INDEX 01 00:01:15
  TRACK 03 AUDIO
    TITLE "4:cjc005_1688"
    INDEX 01 00:01:36
  TRACK 04 AUDIO
    TITLE "0:"
    INDEX 01 00:02:53
  TRACK 05 AUDIO
    TITLE "5:cjc005_1689"
    INDEX 01 00:03:02
  TRACK 06 AUDIO
    TITLE "0:"
    INDEX 01 00:07:39
  TRACK 07 AUDIO
    TITLE "3:cjc005_1690"
    INDEX 01 00:08:17
  TRACK 08 AUDIO
    TITLE "0:"
    INDEX 01 00:09:36
  TRACK 09 AUDIO
    TITLE "4:cjc005_1691"
    INDEX 01 00:09:61
  TRACK 10 AUDIO
    TITLE "0:"
    INDEX 01 00:10:72
  TRACK 11 AUDIO
    TITLE "5:cjc005_1692"
    INDEX 01 00:11:19
  TRACK 12 AUDIO
    TITLE "0:"
    INDEX 01 00:15:66
  TRACK 13 AUDIO
    TITLE "3:cjc005_1693"
    INDEX 01 00:16:49
  TRACK 14 AUDIO
    TITLE "0:"
    INDEX 01 00:17:69
  TRACK 15 AUDIO
    TITLE "4:cjc005_1694"
    INDEX 01 00:18:17
  TRACK 16 AUDIO
    TITLE "0:"
    INDEX 01 00:19:36
  TRACK 17 AUDIO
    TITLE "5:cjc005_1695"
    INDEX 01 00:19:56
  TRACK 18 AUDIO
    TITLE "0:"
    INDEX 01 00:23:04
  TRACK 19 AUDIO
    TITLE "3:cjc005_1696"
    INDEX 01 00:23:50
  TRACK 20 AUDIO
    TITLE "0:"
    INDEX 01 00:24:69
  TRACK 21 AUDIO
    TITLE "4:cjc005_1697"
    INDEX 01 00:25:17
  TRACK 22 AUDIO
    TITLE "0:"
    INDEX 01 00:26:28
  TRACK 23 AUDIO
    TITLE "5:cjc005_1698"
    INDEX 01 00:26:52
  TRACK 24 AUDIO
    TITLE "0:"
    INDEX 01 00:30:61
  TRACK 25 AUDIO
    TITLE "3:cjc005_1699"
    INDEX 01 00:31:37
  TRACK 26 AUDIO
    TITLE "0:"
    INDEX 01 00:32:45
  TRACK 27 AUDIO
    TITLE "4:cjc005_1700"
    INDEX 01 00:32:72
  TRACK 28 AUDIO
    TITLE "0:"
    INDEX 01 00:34:12
  TRACK 29 AUDIO
    TITLE "5:cjc005_1701"
    INDEX 01 00:34:36
  TRACK 30 AUDIO
    TITLE "0:"
    INDEX 01 00:37:71
  TRACK 31 AUDIO
    TITLE "3:cjc005_1702"
    INDEX 01 00:38:47
  TRACK 32 AUDIO
    TITLE "0:"
    INDEX 01 00:39:58
  TRACK 33 AUDIO
    TITLE "4:cjc005_1703"
    INDEX 01 00:40:09
  TRACK 34 AUDIO
    TITLE "0:"
    INDEX 01 00:41:63
  TRACK 35 AUDIO
    TITLE "5:cjc005_1704"
    INDEX 01 00:42:10
  TRACK 36 AUDIO
    TITLE "0:"
    INDEX 01 00:46:00
  TRACK 37 AUDIO
    TITLE "3:cjc005_1705"
    INDEX 01 00:46:53
  TRACK 38 AUDIO
    TITLE "0:"
    INDEX 01 00:48:12
  TRACK 39 AUDIO
    TITLE "4:cjc005_1706"
    INDEX 01 00:48:32
  TRACK 40 AUDIO
    TITLE "0:"
    INDEX 01 00:49:39
  TRACK 41 AUDIO
    TITLE "5:cjc005_1707"
    INDEX 01 00:49:65
  TRACK 42 AUDIO
    TITLE "0:"
    INDEX 01 00:54:11
  TRACK 43 AUDIO
    TITLE "3:cjc005_1708"
    INDEX 01 00:54:64
  TRACK 44 AUDIO
    TITLE "0:"
    INDEX 01 00:56:14
  TRACK 45 AUDIO
    TITLE "4:cjc005_1709"
    INDEX 01 00:56:43
  TRACK 46 AUDIO
    TITLE "0:"
    INDEX 01 00:58:17
  TRACK 47 AUDIO
    TITLE "5:cjc005_1710"
    INDEX 01 00:58:40
  TRACK 48 AUDIO
    TITLE "0:"
    INDEX 01 01:02:61
  TRACK 49 AUDIO
    TITLE "3:cjc005_1711"
    INDEX 01 01:03:33
  TRACK 50 AUDIO
    TITLE "0:"
    INDEX 01 01:04:60
  TRACK 51 AUDIO
    TITLE "4:cjc005_1712"
    INDEX 01 01:05:09
  TRACK 52 AUDIO
    TITLE "0:"
    INDEX 01 01:06:55
  TRACK 53 AUDIO
    TITLE "5:cjc005_1713"
    INDEX 01 01:07:06
  TRACK 54 AUDIO
    TITLE "0:"
    INDEX 01 01:11:03
  TRACK 55 AUDIO
    TITLE "3:cjc005_1714"
    INDEX 01 01:11:51
  TRACK 56 AUDIO
    TITLE "0:"
    INDEX 01 01:12:66
  TRACK 57 AUDIO
    TITLE "4:cjc005_1715"
    INDEX 01 01:13:16
  TRACK 58 AUDIO
    TITLE "0:"
    INDEX 01 01:14:35
  TRACK 59 AUDIO
    TITLE "5:cjc005_1716"
    INDEX 01 01:14:63
  TRACK 60 AUDIO
    TITLE "0:"
    INDEX 01 01:19:17
